/* XPM */
static char *enemy_l11673482864[] = {
/* columns rows colors chars-per-pixel */
"16 16 4 1 ",
"  c #E0F8CF",
". c #071821",
"X c #86C06C",
"o c #E0F8CF",
/* pixels */
"       ..       ",
"      .oo.      ",
"     .oooo.     ",
"    .ooooo.     ",
"   .XXooooo.    ",
"   .ooXXXXX.    ",
"   ...oooo...   ",
"   .o.....XX.   ",
"   .o.o.XXX.    ",
"    .ooo...     ",
"    ....X.      ",
"    .XXXXX.     ",
"    .XX.oo.     ",
"    ....oo.     ",
"    .XXX..      ",
"     .....      "
};
