/* XPM */
static char *result[] = {
/* columns rows colors chars-per-pixel */
"16 16 4 1 ",
"  c #071821",
". c #E0F8CF",
"X c #86C06C",
"o c #E0F8CF",
/* pixels */
".......  .......",
"...... oo ......",
"..... oooo .....",
"..... ooooo ....",
".... oooooXX ...",
".... XXXXXoo ...",
"...   oooo   ...",
"... XX     o ...",
".... XXX o o ...",
".....   ooo ....",
"...... X    ....",
"..... XXXXX ....",
"..... oo XX ....",
"..... oo    ....",
"......  XXX ....",
"......     ....."
};
