/* XPM */
static char *enemy_d11673482864[] = {
/* columns rows colors chars-per-pixel */
"16 16 4 1 ",
"  c #071821",
". c #E0F8CF",
"X c #86C06C",
"o c #E0F8CF",
/* pixels */
".......  .......",
"...... oo ......",
"..... oooo .....",
".... oooooo ....",
".... oooooo ....",
"... XXXXXXXX ...",
"..   oooooo   ..",
".. XX      XX ..",
"...  o oo o  ...",
".... oooooo ....",
"... X      X ...",
".. oo XXXX oo ..",
".. oo XXXX oo ..",
"...          ...",
".... XX  XX ....",
".....      ....."
};
