/* XPM */
static char *wall1673397906[] = {
/* columns rows colors chars-per-pixel */
"16 16 4 1 ",
"  c #071821",
". c #306850",
"X c #86C06C",
"o c #E0F8CF",
/* pixels */
".              .",
" oooooooooooooo ",
" oooooooooooooo ",
" oooooooooooooo ",
" oooo XXXX oooo ",
" oooo XXXX oooo ",
" oooo XXXX oooo ",
" oooo      oooo ",
" ooooo    ooooo ",
" oooooooooooooo ",
" oooooooooooooo ",
" oooooooooooooo ",
" XXXXXXXXXXXXXX ",
" XXXXXXXXXXXXXX ",
" XXXXXXXXXXXXXX ",
".              ."
};
