/* XPM */
static char *you_r1673399702[] = {
/* columns rows colors chars-per-pixel */
"16 16 4 1 ",
"  c #071821",
". c #E0F8CF",
"X c #86C06C",
"o c #E0F8CF",
/* pixels */
"................",
"......      ....",
"..... XXXXXX ...",
".... XXXXXXXX ..",
".... XXXXX  X ..",
".... XooX ooX ..",
".... XooXoo o ..",
".... XXoXoo o ..",
"..... XXXXoo ...",
"......      ....",
"...... XXoo ....",
"...... XX o ....",
"...... Xo X ....",
".......  XX ....",
"....... XX  ....",
"....... oo  ...."
};
